# xmcd
#
# Track frame offsets:
#	150
#	15097
#	32756
#	46669
#	64658
#	84110
#	101259
#	112410
#	127711
#	142891
#	158192
#	172674
#	190442
#	201868
#	220615
#	231969
#	248336
#	257920
#
# Disc length: 3718 seconds
#
# Revision: 1
# Processed by: cddbd v1.5.2PL0 Copyright (c) Steve Scherf et al.
# Submitted via: audiograbber 1.83.01
#
DISCID=d90e8412
DTITLE=Pure Country - More taste and flower vol. 1
DYEAR=2007
DGENRE=Country
TTITLE0=Dolly Parton - I will always love you
TTITLE1=Juice Newton and Eddie Rabbitt - Both to each other (Friends and lovers)
TTITLE2=Charley Pride - What`s another year
TTITLE3=Patsy Cline and Waylon Jennings - Just out of reach
TTITLE4=Lucky - Broken Dreams
TTITLE5=Lynn Anderson - Blue Bayou
TTITLE6=Roy Drusky - Blue eyes crying in the rain
TTITLE7=Freddy Fender - La paloma
TTITLE8=Merle Haggard - Today i startet loving you again
TTITLE9=Stonewall Jackson - Don`t be angry
TTITLE10=The Bellamy Brothers - Lovers live longer
TTITLE11=Glen Campbell - Colleen
TTITLE12=Johnny Cash - Oh lonesome me
TTITLE13=Marty Robbins - El Paso
TTITLE14=Crystal Gayle - Don`t make my brown eyes blue
TTITLE15=Ronnie Milsap - It was almost like a song
TTITLE16=Charley Pride - Kiss an angel good mornin`
TTITLE17=Andre` Lamberz and Hill`s Angels - The bluest eyes of Texas
EXTD=
EXTT0=
EXTT1=
EXTT2=
EXTT3=
EXTT4=
EXTT5=
EXTT6=
EXTT7=
EXTT8=
EXTT9=
EXTT10=
EXTT11=
EXTT12=
EXTT13=
EXTT14=
EXTT15=
EXTT16=
EXTT17=
PLAYORDER=
